<svg id="Layer_1" data-name="Layer 1" xmlns="http://www.w3.org/2000/svg" viewBox="0 0 431.49 108"><defs><style>.cls-1{font-size:100px;font-family:BasicSans-Regular, Basic Sans;letter-spacing:-0.06em;}.cls-1,.cls-3{fill:#231f20;}.cls-2{letter-spacing:-0.09em;}</style></defs><text class="cls-1" transform="translate(0 83)">Despe<tspan class="cls-2" x="249.6" y="0">r</tspan><tspan x="275.59" y="0" xml:space="preserve">   do</tspan></text><path class="cls-3" d="M376.06,384c25.63-.61,25.18-4.78,25.18-4.78-.16-14.18-4.54-14.58-5.24-14.94-14.71-7.51-13.19-23.51-13.19-23.51h8l1.29-4.7-8.57-6a11,11,0,0,0,4.55-6.75c1.32-5.82-.78-14.25-12-15.24v0c-11.21,1-13.3,9.42-12,15.24a11,11,0,0,0,4.55,6.75l-8.57,6,1.29,4.7h8s1.52,16-13.2,23.51c-.69.36-5.08.76-5.23,14.94,0,0-.45,4.17,25.18,4.78" transform="translate(-71.47 -293.61)"/></svg>