<svg id="Layer_1" data-name="Layer 1" xmlns="http://www.w3.org/2000/svg" viewBox="0 0 55.32107 80.92913"><defs><style>.cls-1{fill:#fff;stroke:#000;stroke-miterlimit:10;stroke-width:5px;}</style></defs><path class="cls-1" d="M27.64056,78.42983c25.63-.61,25.18-4.78,25.18-4.78-.16-14.18-4.54-14.58-5.24-14.94-14.71-7.51-13.19-23.51-13.19-23.51h8l1.29-4.7-8.57-6a10.9999,10.9999,0,0,0,4.55-6.75c1.32-5.82-.78-14.25-12-15.24h0c-11.21,1-13.3,9.42-12,15.24a11,11,0,0,0,4.55,6.75l-8.57,6,1.29,4.7h8s1.52,16-13.2,23.51c-.69.36-5.08.76-5.23,14.94,0,0-.45,4.17,25.18,4.78"/></svg>