<svg id="Layer_1" data-name="Layer 1" xmlns="http://www.w3.org/2000/svg" viewBox="0 0 50.35 75.93"><defs><style>.cls-1{fill:#121212;}</style></defs><path class="cls-1" d="M376.06,384c25.63-.61,25.18-4.78,25.18-4.78-.16-14.18-4.54-14.58-5.24-14.94-14.71-7.51-13.19-23.51-13.19-23.51h8l1.29-4.7-8.57-6a11,11,0,0,0,4.55-6.75c1.32-5.82-.78-14.25-12-15.24v0c-11.21,1-13.3,9.42-12,15.24a11,11,0,0,0,4.55,6.75l-8.57,6,1.29,4.7h8s1.52,16-13.2,23.51c-.69.36-5.08.76-5.23,14.94,0,0-.45,4.17,25.18,4.78" transform="translate(-350.88 -308.13)"/></svg>